<?xml version="1.0" encoding="UTF-8" standalone="no"?>
<svg width="357px" height="78px" viewBox="0 0 357 78" version="1.1" xmlns="http://www.w3.org/2000/svg" xmlns:xlink="http://www.w3.org/1999/xlink" xmlns:sketch="http://www.bohemiancoding.com/sketch/ns">
    <!-- Generator: Sketch 3.0.1 (7597) - http://www.bohemiancoding.com/sketch -->
    <title>Artboard 4</title>
    <description>Created with Sketch.</description>
    <defs></defs>
    <g id="Icons" stroke="none" stroke-width="1" fill="none" fill-rule="evenodd" sketch:type="MSPage">
        <g id="Artboard-4" sketch:type="MSArtboardGroup" fill-opacity="0.0399999991" fill="#FFFFFF">
            <path d="M24.8056856,2.57939898 C23.0924462,3.10902646 21.3757503,3.8041521 19.6555466,4.66479676 C17.9353428,5.52544141 16.1107006,6.53833877 14.1815652,7.70351922 C12.2524298,8.86869968 10.4034126,10.1000651 8.63445807,11.3976524 C6.86550358,12.6952397 5.60845045,13.7908902 4.86326096,14.6846365 C4.11807147,15.5783829 3.60967879,16.1973757 3.33806767,16.5416336 C3.06645655,16.8858914 2.95851016,17.3162073 3.01422526,17.8325941 C3.33458709,17.9914824 3.78030122,17.8325965 4.35138102,17.3559318 C4.81103061,16.9189891 5.43085182,16.3959898 6.21086325,15.7869182 C6.99087468,15.1778466 8.22355282,14.4429995 9.90893465,13.5823548 C11.5943165,12.7217102 13.279673,12.0199643 14.9650549,11.4770961 C15.3550606,12.4436663 15.6893462,13.4036017 15.9679217,14.3569312 C16.2464972,15.3102606 16.46239,16.3363985 16.6156065,17.4353755 C15.7938088,17.4883382 14.9929162,17.5379901 14.2129048,17.5843325 C13.4328933,17.6306749 12.6807507,17.660466 11.9564544,17.6737067 C11.2739444,17.7266694 10.9675159,17.9649982 11.0371598,18.3887002 C11.3575217,19.0639752 12.3116285,19.6928984 13.8995089,20.2754886 C15.4873893,20.8580789 16.5668532,21.1824708 17.137933,21.2486743 C17.5418675,22.572743 17.8482959,23.8438299 18.0572276,25.0619731 C16.789709,24.9957696 15.4421202,24.8732951 14.0144207,24.6945458 C12.5867212,24.5157966 11.7057394,24.4264233 11.3714488,24.4264233 C10.7864402,24.4926267 10.5078689,24.7574365 10.5357264,25.2208605 C10.5914415,25.6842845 10.84912,26.1410814 11.3087696,26.5912648 C12.2837839,27.5048722 14.2094082,28.5442505 17.0857003,29.7094309 C19.9619925,30.8746114 21.7622597,31.4704334 22.486556,31.4969147 C22.9462056,31.5498775 23.3118305,30.9209543 23.5834416,29.6101263 C23.8550527,28.2992983 23.9072849,27.4188058 23.7401396,26.9686224 C23.7262108,26.6111239 23.3640681,26.3198332 22.6537005,26.0947415 C21.7204725,25.8034464 20.9474371,25.5982188 20.334571,25.4790526 C20.5017163,24.9494251 20.6479662,24.4231157 20.7733252,23.9001086 C20.8986842,23.3771014 21.0449341,22.6190835 21.2120795,21.626032 C22.5910282,21.626032 24.011742,21.6127915 25.4742634,21.5863101 C26.9367849,21.5598287 28.5803557,21.4572149 30.4050253,21.2784657 C32.2296949,21.0997164 33.1838017,20.8779382 33.2673744,20.6131245 C33.5180923,20.3615514 33.6016637,19.9643368 33.5180911,19.4214686 C33.4484472,18.812397 33.2987151,18.1768536 33.0688903,17.5148192 C32.8390655,16.8527849 32.654512,16.3496463 32.5152242,16.0053884 C32.3202214,15.6743713 32.0416501,15.5154854 31.6795019,15.5287261 C31.2477099,15.489004 30.4572637,15.6048583 29.3081397,15.8762924 C28.1590157,16.1477265 26.8706233,16.3827451 25.4429239,16.5813555 C24.0152244,16.7799658 22.6119213,16.9322314 21.2329725,17.0381569 C21.205115,15.7008475 21.1528828,14.5687857 21.0762746,13.6419376 C20.9996663,12.7150896 20.7733271,11.2784966 20.3972502,9.33211558 C21.0797602,8.81572879 21.9154742,8.35562182 22.9044172,7.95178086 C23.8933603,7.54793991 24.8788064,7.20037709 25.860785,6.90908198 C26.8427637,6.61778686 27.9291919,6.44897064 29.1201022,6.40262823 C30.3110125,6.35628583 31.0805658,6.67074743 31.4287852,7.34602246 C31.8884348,9.10703383 31.6655777,10.6694115 30.7602073,12.0332022 C30.593062,12.3244973 30.593062,12.5893071 30.7602073,12.8276395 C31.3870022,12.9600463 32.1461091,12.9534261 33.0375507,12.8077785 C34.2772117,12.7283344 35.1547114,11.6889561 35.6700761,9.68961234 C35.990438,8.19341471 36.0774915,6.80316343 35.9312394,5.5188168 C35.7849872,4.23447016 35.3671302,3.3109461 34.6776558,2.7482169 C33.9881814,2.1854877 33.2917531,1.81806415 32.58835,1.64593522 C31.8849468,1.47380629 30.8403043,1.45394556 29.4543911,1.58635243 C28.068478,1.7187593 26.5189249,2.04977151 24.8056856,2.57939898 Z M40.1869924,5.08941469 C39.5184531,6.25657439 39.1227929,7.19697877 39,7.91065605 C39.3683788,8.1931533 40.4393899,8.41989112 42.2130656,8.59087629 C43.9867412,8.76186147 45.9241117,8.88823993 48.0252352,8.97001545 C50.1263586,9.05179097 52.5753587,8.96629966 55.3723087,8.71353896 C56.2727902,8.6243293 57.2824058,8.50910189 58.4011858,8.36785326 C59.5199659,8.22660464 60.5841553,8.0221689 61.593786,7.75453992 C62.6034168,7.48691095 63.6573736,7.14494572 64.7556882,6.72863397 C65.8540027,6.31232223 66.7101294,5.75477023 67.3240941,5.05596123 C67.5833236,4.80320053 67.5560367,4.62478389 67.2422325,4.52070595 C65.1001781,4.59504734 63.1935054,4.63593448 61.5221572,4.64336862 C59.850809,4.65080276 58.2852226,4.60248159 56.8253511,4.49840365 C55.3654796,4.39432572 53.530435,4.25679622 51.3201623,4.08581104 C49.1098896,3.91482586 47.1418213,3.68437103 45.4158985,3.39443964 C43.6899756,3.10450825 42.4518322,2.97441278 41.7014309,3.00414933 C41.3603395,3.22717348 40.8555317,3.92225498 40.1869924,5.08941469 Z M38.637897,12.499564 C37.8400572,13.600302 37.4617768,14.3251673 37.5030444,14.6741818 C37.8056733,14.9023836 38.2699265,15.0735323 38.8958181,15.1876332 C39.5217096,15.3017341 40.2198089,15.4057657 40.990137,15.4997311 C41.4165686,16.9629072 42.2109575,18.9193724 43.3733275,21.3691855 C44.5356975,23.8189987 45.7324393,25.9701037 46.9635886,27.8225651 C48.1947379,29.6750265 49.3880407,31.3865141 50.5435328,32.9570792 C51.0662554,33.1987046 52.5518658,32.4201456 55.0004086,30.6213787 C55.248014,30.3126351 55.3030366,30.0710133 55.165478,29.8965061 L54.381398,29.1514982 C55.6056694,28.1984202 56.8918229,26.9533969 58.239897,25.4163908 C59.5879711,23.8793848 60.8638078,22.2517936 62.0674454,20.5335685 C63.271083,18.8153434 64.2718067,17.147482 65.0696465,15.5299341 C65.8674862,13.9123863 66.4727349,12.902273 66.8854107,12.499564 L67.3806191,12.096857 C67.5044218,11.8820789 67.5319331,11.667304 67.4631538,11.4525258 C67.256816,11.3048659 66.6446894,11.3149335 65.6267559,11.4827289 C64.6088224,11.6505243 62.2600449,11.7109297 58.5803528,11.663947 C54.9006607,11.6169643 51.6680825,11.4961534 48.8825212,11.3015107 C46.0969599,11.106868 44.0920736,10.9055166 42.8678023,10.6974502 C41.6435309,10.4893839 40.8181918,10.4457578 40.3917602,10.5665705 C40.020352,10.7545013 39.4357368,11.3988261 38.637897,12.499564 Z M60,15 C59.7123273,15.9350227 59.3390434,16.8447609 58.880137,17.7292419 C58.4212306,18.6137228 57.6849366,19.760372 56.6712329,21.1692238 C55.6575292,22.5780756 54.9041121,23.5667842 54.4109589,24.1353791 C53.9178058,24.703974 53.397263,25.1588431 52.8493151,25.5 C51.7397205,24.3754456 50.5821978,23.0613794 49.3767123,21.5577617 C48.1712268,20.0541441 47.215757,18.78746 46.510274,17.7576715 C45.804791,16.7278829 45.3013714,15.9097503 45,15.3032491 C46.5753503,15.3537909 48.4314962,15.4011731 50.5684932,15.4453971 C52.7054901,15.4896212 54.6198546,15.4611918 56.3116438,15.3601083 C58.0034331,15.2590248 59.2328729,15.1389899 60,15 Z M74.670279,2.40935375 C74.6978718,3.00939329 74.8530786,4.73789036 75.1359041,7.59489681 C75.4187297,10.4519033 75.6429173,12.4872341 75.8084737,13.7009505 C75.9740301,14.9146668 76.0568071,15.7738015 76.0568071,16.2783802 C74.553003,16.5647627 73.3872273,16.8886428 72.5594452,17.2500302 C71.7316631,17.6114177 70.9590781,18.1909926 70.2416669,18.9887725 C69.5242558,19.7865523 69.1103709,20.9491115 69,22.4764849 C69.1379637,22.7628674 70.365822,22.7287747 72.6836119,22.3742059 C73.0147248,21.2423132 73.5286318,20.492275 74.2253484,20.1240689 C74.922065,19.7558628 75.7187933,19.5853996 76.6155572,19.6126741 C76.9742628,21.6446262 77.2570841,23.2231156 77.4640296,24.3481898 C77.6709752,25.4732639 77.8227329,26.4789969 77.9193075,27.365419 C76.3327252,27.0790365 74.8841282,26.8710713 73.5734732,26.7415173 C72.2628182,26.6119633 71.0556541,26.5471873 69.9519447,26.5471873 C69.7174064,26.5744618 69.7001612,26.8403845 69.9002085,27.3449632 C70.1002559,27.8495419 70.4003224,28.4086613 70.8004171,29.0223381 C71.2005117,29.6360149 71.4143522,30.2019528 71.441945,30.7201687 C71.4557413,31.1292866 71.8454829,31.3270239 72.6111813,31.3133867 C73.3768798,31.2997494 74.766843,31.3474791 76.7811128,31.4565772 C78.7953826,31.5656753 81.5166754,31.9066017 84.9450729,32.4793668 C88.3734705,33.0521318 90.7740025,33.5157917 92.1467412,33.8703606 C93.5194798,34.2249294 94.4541698,34.4294852 94.950839,34.4840343 C95.4613046,34.5385833 95.7820654,34.4533517 95.9131309,34.2283369 C96.0441964,34.0033221 96.0269512,33.7612643 95.8613948,33.5021563 C95.5854674,33.1884993 94.864618,32.7350671 93.6988249,32.1418462 C92.5330317,31.5486253 90.9913107,30.8906373 89.0736155,30.1678624 C87.1559203,29.4450875 84.6726113,28.7291419 81.6236139,28.0200043 C81.4994466,27.0381214 81.3890773,25.8346511 81.2925027,24.4095571 C81.1959281,22.9844632 81.1407435,21.2355106 81.1269471,19.1626467 C82.3410275,19.2171958 83.3550454,19.4149331 84.1690311,19.7558647 C84.9830168,20.0967962 85.7487038,20.519545 86.4661149,21.0241237 L86.8179206,22.9674239 C86.9006988,23.1037965 87.1697239,23.0935687 87.6250041,22.9367402 C88.0802842,22.7799117 88.7631942,22.8003673 89.6737545,22.9981076 C90.5843148,23.1958479 91.194795,23.4242686 91.5052133,23.6833766 C91.8156316,23.9424845 92.0398192,23.9970328 92.1777829,23.8470229 C92.108801,23.2333461 92.0053298,19.8274909 91.8673661,13.6293552 C91.7294024,7.43121949 91.6259312,4.18219048 91.5569494,3.88217071 C91.4879675,3.60942546 90.4705006,3.27531755 88.5045182,2.87983694 C86.5385357,2.48435634 85.5141707,2.35480429 85.4313925,2.49117691 C85.3348179,3.24122634 85.5417603,8.37557858 86.052226,17.8943877 C85.0588874,17.389809 84.1517898,17.0216084 83.3309059,16.7897749 C82.510022,16.5579415 81.7753764,16.4011153 81.1269471,16.3192917 C80.9751871,13.0190743 80.9200024,9.96437333 80.9613915,7.1550973 C81.0027806,4.34582126 81.0131277,2.76733183 80.9924332,2.41958164 C80.9717386,2.07183145 80.8234299,1.9047775 80.5475025,1.91841476 C77.0708177,1.50929689 75.2221321,1.40020043 75.0013902,1.5911221 C74.7254628,1.74113198 74.6150935,2.01387314 74.670279,2.40935375 Z M105.019133,6.29326765 C103.86409,8.04630859 102.954594,9.66885078 102.290617,11.1609429 C101.62664,12.653035 100.886594,14.4093951 100.070456,16.4300759 C99.2543181,18.4507567 98.6768054,20.096717 98.3379006,21.3680062 C97.9989959,22.6392954 97.7603828,23.7667114 97.6220543,24.7502878 C97.4837259,25.7338642 97.4629769,26.9884071 97.5598068,28.5139542 C97.8779623,30.0127373 98.3966863,31.0397898 99.1159944,31.5951424 C99.8353025,32.1504951 100.921165,32.5352216 102.373614,32.7493335 C103.826063,32.9634453 105.451398,33.0403906 107.249668,32.9801717 C109.047938,32.9199527 111.143583,32.6322442 113.536666,32.1170375 C115.929749,31.6018308 118.039226,30.9795775 119.865162,30.250259 C121.691098,29.5209404 123.043239,28.9555597 123.921625,28.5541 C124.80001,28.1526402 125.336025,27.8180954 125.529685,27.5504556 C125.695679,27.2292878 125.834006,26.6873252 125.944668,25.9245517 C126.055331,25.1617781 126.000001,24.7937789 125.778675,24.8205429 C125.612681,24.7670149 124.696268,25.1383596 123.02941,25.9345881 C121.362552,26.7308166 119.809838,27.2961973 118.371222,27.6307471 C116.932606,27.9652969 115.922823,28.1392602 115.341844,28.1526422 C115.245014,26.4129833 115.172392,24.8506591 115.123977,23.465623 C115.075562,22.0805868 115.085937,20.9264073 115.155101,20.0030499 C116.483055,19.9629039 117.855944,19.9595584 119.273811,19.9930134 C120.691678,20.0264684 121.919325,20.1368682 122.956788,20.3242161 C123.399439,20.35098 123.62422,20.2706893 123.631136,20.0833414 C123.638053,19.8959935 123.523933,19.7086484 123.288775,19.5213006 C122.956787,19.1198408 122.361983,18.6815871 121.504346,18.2065264 C120.64671,17.7314657 119.61272,17.2965575 118.402346,16.9017887 C117.191972,16.50702 116.081902,16.149057 115.072104,15.8278892 C115.058272,13.6867705 115.072104,11.9203741 115.113603,10.5286469 C115.155101,9.13691976 115.248472,7.71844989 115.393717,6.27319476 C115.538961,4.82793963 115.618499,3.89790514 115.632332,3.48306339 C115.659998,3.08160363 115.528588,2.88756766 115.238098,2.90094965 C114.933775,2.94109563 114.404677,3.85105743 113.650786,5.63086236 C112.896896,7.41066729 112.281344,9.13022746 111.804111,10.7895945 C111.326877,12.4489615 110.977603,13.9209585 110.756278,15.2056297 C109.760313,15.0985738 108.8439,14.9982104 108.007013,14.9045364 C107.170126,14.8108625 106.426621,14.7439535 105.776477,14.7038075 C106.011636,13.7804501 106.357452,12.5426344 106.813936,10.9903233 C107.27042,9.43801227 107.844474,7.76863382 108.536117,5.98213789 C109.227759,4.19564197 109.635822,3.008008 109.760318,2.41920035 C109.87098,1.96421262 109.791443,1.67650411 109.521702,1.55606618 C109.251962,1.43562826 108.944185,1.50922811 108.598364,1.77686795 C107.367241,3.03477519 106.174175,4.5402267 105.019133,6.29326765 Z M111,19.5510613 C110.941956,20.6744128 110.840382,21.836043 110.695273,23.0359866 C110.550164,24.2359303 110.506632,25.9081671 110.564676,28.0527473 C108.315488,28.5633616 106.566953,28.6367613 105.319017,28.2729486 C104.07108,27.9091359 103.46526,27.0060003 103.501537,25.5635149 C103.537814,24.1210294 103.711942,22.8859996 104.023926,21.8583882 C104.335911,20.8307769 104.593475,20.131884 104.796627,19.7616886 C105.420595,19.6212697 106.305746,19.5382961 107.452106,19.5127654 C108.598466,19.4872347 109.781086,19.4999999 111,19.5510613 Z M152.896064,4.51049883 C152.695592,6.17326503 152.348114,7.68968506 151.853618,9.0598044 C151.025003,9.13961718 149.040367,9.32251872 145.899649,9.6085145 C142.758931,9.89451029 139.638308,10.3501014 136.537685,10.9753015 C135.014102,11.3743654 134.1855,11.6936117 134.051852,11.93305 C133.771193,12.3321139 133.771193,12.8641911 134.051852,13.5292976 C134.399336,14.6200722 134.840366,16.1065629 135.374957,17.9888142 C135.909547,19.8710656 136.527658,21.8264493 137.229307,23.855024 C137.930957,25.8835988 138.422104,26.9377768 138.702764,27.0175895 C138.94333,27.2304236 139.377678,27.2304236 140.005821,27.0175895 C140.633965,26.8047555 141.028219,26.5653207 141.188596,26.2992781 C141.482621,25.8204015 141.562808,25.3681358 141.429161,24.9424677 C141.415796,23.8915995 141.258762,22.4017833 140.958055,20.4729745 C140.657348,18.5441657 140.410104,16.9944909 140.216315,15.8239035 C140.022526,14.6533161 139.972409,13.8086435 140.065962,13.2898605 C140.119421,13.1169328 140.704121,12.9074274 141.820078,12.661338 C142.936035,12.4152486 143.741249,12.2789038 144.235745,12.2522995 C144.556499,12.6912698 144.987506,13.9981844 145.528779,16.1730826 C146.070052,18.3479808 146.68148,21.5637224 147.363083,25.8204039 C147.643742,27.576285 147.703883,28.7402038 147.543506,29.3121954 C147.383129,29.884187 147.03565,30.3164997 146.50106,30.6091466 C145.96647,30.9017934 145.355041,31.064742 144.666757,31.0979974 C143.978472,31.1312527 143.260127,31.1112998 142.5117,31.0381381 C141.763274,30.9649764 140.069317,30.5193617 137.429778,29.7012808 C134.790238,28.8831998 132.59511,27.9753431 130.844327,26.9776833 C129.828606,26.3391811 129.213836,26.1130483 129,26.2992781 C129,27.4698655 129.427666,28.3477929 130.28301,28.9330866 C131.37892,29.6514016 133.206523,30.53598 135.765874,31.5868482 C138.325224,32.6377164 140.770938,33.38595 143.103088,33.8315713 C145.435238,34.2771927 147.102466,34.5 148.104823,34.5 C149.107179,34.5 150.096157,34.3270749 151.071784,33.9812195 C152.047411,33.6353642 152.708956,33.1232399 153.05644,32.4448313 C153.176723,32.0590695 153.327074,31.5901765 153.507498,31.0381381 C153.687922,30.4860997 153.754745,29.6281252 153.707969,28.4641889 C153.661192,27.3002525 153.256914,24.9823912 152.495123,21.5105354 L152.013994,19.515226 C150.918084,15.7773276 150.136258,13.2566118 149.668491,11.9530031 C150.096164,11.8731903 151.265562,11.8632139 153.176722,11.9230735 C155.087882,11.9829331 156.19714,11.8798431 156.50453,11.6138005 C156.972296,11.4275707 157.520243,9.86126843 158.148386,6.91484673 C158.77653,3.96842503 159.057186,2.31566023 158.990362,1.95650273 C158.896809,1.69046014 158.081571,1.54081342 156.544624,1.5075581 C155.007677,1.47430278 153.985288,1.55078887 153.477428,1.73701869 C153.290321,1.9232485 153.096535,2.84773264 152.896064,4.51049883 Z M177.732282,1.98204431 C177.580562,2.40578792 177.549529,3.85127873 177.639182,6.31856008 C177.728834,8.78584144 177.952962,11.3248477 178.311572,13.9356552 C176.408181,14.2090381 174.57723,14.5849341 172.818663,15.0633543 C171.060096,15.5417745 169.753258,15.9928497 168.898112,16.4165933 C168.042966,16.8403369 167.456785,17.2230673 167.139554,17.564796 C167.167139,17.7151567 167.277479,17.7971703 167.470576,17.8108395 C168.215381,17.7014863 169.791172,17.5716313 172.197995,17.4212707 C174.604819,17.27091 176.746101,17.2640756 178.621906,17.4007671 C178.718454,18.1935777 178.815002,19.0000454 178.91155,19.8201943 C179.008099,20.6403432 179.180505,21.6723485 179.428774,22.916241 C177.277115,23.0802708 174.970323,23.3946565 172.508329,23.8594076 C170.046335,24.3241586 167.567137,24.9426783 165.070661,25.7149852 C162.574186,26.4872921 161.084598,27.1058118 160.601854,27.5705629 C160.381171,28.0489831 160.519096,28.322362 161.015633,28.3907077 C162.063877,28.3360311 163.587945,28.2130106 165.587884,28.0216426 C167.587824,27.8302745 169.918752,27.649161 172.58074,27.4782966 C175.242728,27.3074323 177.84261,27.2288358 180.380464,27.242505 C180.904586,28.8281262 181.452837,30.1813517 182.025233,31.3022219 C182.59763,32.4230921 183.207947,33.3935871 183.856203,34.213736 C184.311362,34.6648179 184.504456,34.5828043 184.435493,33.9676926 C184.21481,33.0518596 184.063093,32.101868 183.980336,31.1176893 C183.89758,30.1335106 183.828618,28.923809 183.773447,27.4885484 C184.697557,27.4338718 185.935432,27.4065339 187.487109,27.4065339 C189.038786,27.4065339 190.007707,27.2835134 190.393902,27.0374688 C190.531829,26.9007773 190.535277,26.535133 190.404247,25.9405251 C190.273216,25.3459171 190.207702,24.6385493 190.207702,23.8184003 C190.207702,22.9982514 190.076674,22.4719971 189.814613,22.2396215 C189.6491,22.10293 189.335322,22.0824266 188.873267,22.1781107 C188.411212,22.2737947 187.669866,22.3899807 186.649207,22.5266722 C185.628549,22.6633637 184.683764,22.7453774 183.814825,22.7727157 C183.745862,20.8316965 183.752758,19.0889062 183.835514,17.5442924 C184.828587,17.5169541 185.783716,17.4964507 186.70093,17.4827815 C187.618143,17.4691124 188.490517,17.5511261 189.318078,17.728825 C189.731859,17.728825 189.924954,17.5101219 189.897368,17.0727091 C189.828405,16.7583187 189.824957,16.0987922 189.887024,15.0941097 C189.949091,14.0894273 189.952539,13.5187489 189.897368,13.3820574 C189.787027,13.1360127 188.976719,13.0574163 187.46642,13.1462658 C185.956121,13.2351152 184.787209,13.3342151 183.959648,13.4435683 C183.945855,12.5824119 183.976888,10.5696599 184.052748,7.40525198 C184.128607,4.24084403 184.090678,2.43312622 183.938959,1.98204431 C183.732068,1.65398474 182.659703,1.49337465 180.721831,1.50020922 C178.783959,1.5070438 177.787453,1.66765389 177.732282,1.98204431 Z M203.670279,2.40935375 C203.697872,3.00939329 203.853079,4.73789036 204.135904,7.59489681 C204.41873,10.4519033 204.642917,12.4872341 204.808474,13.7009505 C204.97403,14.9146668 205.056807,15.7738015 205.056807,16.2783802 C203.553003,16.5647627 202.387227,16.8886428 201.559445,17.2500302 C200.731663,17.6114177 199.959078,18.1909926 199.241667,18.9887725 C198.524256,19.7865523 198.110371,20.9491115 198,22.4764849 C198.137964,22.7628674 199.365822,22.7287747 201.683612,22.3742059 C202.014725,21.2423132 202.528632,20.492275 203.225348,20.1240689 C203.922065,19.7558628 204.718793,19.5853996 205.615557,19.6126741 C205.974263,21.6446262 206.257084,23.2231156 206.46403,24.3481898 C206.670975,25.4732639 206.822733,26.4789969 206.919308,27.365419 C205.332725,27.0790365 203.884128,26.8710713 202.573473,26.7415173 C201.262818,26.6119633 200.055654,26.5471873 198.951945,26.5471873 C198.717406,26.5744618 198.700161,26.8403845 198.900209,27.3449632 C199.100256,27.8495419 199.400322,28.4086613 199.800417,29.0223381 C200.200512,29.6360149 200.414352,30.2019528 200.441945,30.7201687 C200.455741,31.1292866 200.845483,31.3270239 201.611181,31.3133867 C202.37688,31.2997494 203.766843,31.3474791 205.781113,31.4565772 C207.795383,31.5656753 210.516675,31.9066017 213.945073,32.4793668 C217.37347,33.0521318 219.774003,33.5157917 221.146741,33.8703606 C222.51948,34.2249294 223.45417,34.4294852 223.950839,34.4840343 C224.461305,34.5385833 224.782065,34.4533517 224.913131,34.2283369 C225.044196,34.0033221 225.026951,33.7612643 224.861395,33.5021563 C224.585467,33.1884993 223.864618,32.7350671 222.698825,32.1418462 C221.533032,31.5486253 219.991311,30.8906373 218.073616,30.1678624 C216.15592,29.4450875 213.672611,28.7291419 210.623614,28.0200043 C210.499447,27.0381214 210.389077,25.8346511 210.292503,24.4095571 C210.195928,22.9844632 210.140743,21.2355106 210.126947,19.1626467 C211.341028,19.2171958 212.355045,19.4149331 213.169031,19.7558647 C213.983017,20.0967962 214.748704,20.519545 215.466115,21.0241237 L215.817921,22.9674239 C215.900699,23.1037965 216.169724,23.0935687 216.625004,22.9367402 C217.080284,22.7799117 217.763194,22.8003673 218.673755,22.9981076 C219.584315,23.1958479 220.194795,23.4242686 220.505213,23.6833766 C220.815632,23.9424845 221.039819,23.9970328 221.177783,23.8470229 C221.108801,23.2333461 221.00533,19.8274909 220.867366,13.6293552 C220.729402,7.43121949 220.625931,4.18219048 220.556949,3.88217071 C220.487968,3.60942546 219.470501,3.27531755 217.504518,2.87983694 C215.538536,2.48435634 214.514171,2.35480429 214.431392,2.49117691 C214.334818,3.24122634 214.54176,8.37557858 215.052226,17.8943877 C214.058887,17.389809 213.15179,17.0216084 212.330906,16.7897749 C211.510022,16.5579415 210.775376,16.4011153 210.126947,16.3192917 C209.975187,13.0190743 209.920002,9.96437333 209.961392,7.1550973 C210.002781,4.34582126 210.013128,2.76733183 209.992433,2.41958164 C209.971739,2.07183145 209.82343,1.9047775 209.547503,1.91841476 C206.070818,1.50929689 204.222132,1.40020043 204.00139,1.5911221 C203.725463,1.74113198 203.615094,2.01387314 203.670279,2.40935375 Z M239.25166,3.32141363 C238.093025,3.46681568 236.779476,3.76422448 235.310973,4.21364898 C234.138865,4.80847552 233.81553,5.31076595 234.340957,5.72053534 C234.448737,5.90559248 235.337909,6.09395139 237.0085,6.28561772 C238.67909,6.47728405 240.167779,6.70199293 241.474612,6.95975109 C242.781445,7.21750926 244.344232,7.56779074 246.16302,8.01060606 C247.981807,8.45342137 249.025911,8.77396197 249.295361,8.97223748 C249.389668,9.2894783 249.12359,10.555118 248.497119,12.7691946 C247.870648,14.9832711 247.264394,16.9792147 246.67834,18.7570851 C246.092286,20.5349555 245.576971,22.1244404 245.132378,23.5255873 C244.687786,24.9267343 244.15563,26.3939511 243.535895,27.9272817 C242.91616,27.5175123 242.020252,26.7442494 240.848144,25.6074698 C239.676036,24.4706902 238.42648,23.2248777 237.099439,21.8699951 C235.772397,20.5151124 234.361174,18.9652821 232.865726,17.2204576 C231.370278,15.475633 230.514787,14.6561066 230.299227,14.7618535 C229.895052,14.6957617 229.164179,15.0956113 228.106588,15.9614143 C227.048996,16.8272174 226.513473,17.5112577 226.5,18.0135556 C226.580835,18.277923 227.197193,18.8826542 228.349092,19.8277675 C229.500991,20.7728808 231.003152,21.9691251 232.855621,23.4165363 C234.708091,24.8639476 236.63463,26.3278598 238.635296,27.808317 C240.635963,29.2887741 242.114548,30.4387549 243.071096,31.2582936 C243.475271,31.4697875 243.849127,31.5424875 244.192676,31.4763956 C244.536225,31.4103038 244.782094,31.2847312 244.930292,31.099674 C245.294049,30.9146169 246.082179,29.7051544 247.294704,27.4712503 C248.507229,25.2373462 249.713,22.7721576 250.912053,20.0756107 C252.111106,17.3790637 253.209098,14.827957 254.206064,12.4222141 C255.203029,10.0164713 255.896852,8.20558208 256.287555,6.98949227 C256.678257,5.77340246 256.530062,4.92743963 255.842964,4.4515784 C255.357954,4.06824575 253.687389,3.71796426 250.831218,3.40072344 C247.975048,3.08348262 245.620763,2.95460547 243.768294,3.01408813 C241.915825,3.07357078 240.410295,3.17601159 239.25166,3.32141363 Z M236.472931,11.4566305 C235.714164,12.0518703 235.399208,12.5833264 235.528056,13.0510147 C235.62827,13.2919451 235.871645,13.5966466 236.258187,13.9651284 C236.644728,14.3336101 237.178005,14.9040397 237.858032,15.6764341 C238.538059,16.4488285 239.550927,17.4302508 240.896665,18.6207303 C242.242403,19.8112098 243.058424,20.5623344 243.344751,20.8741266 C243.831507,21.0867123 244.175095,21.0300236 244.375524,20.704059 C244.690484,20.3072325 244.40774,19.0955126 243.527284,17.068863 C242.646827,15.0422133 241.755647,13.1927462 240.853716,11.5204059 C240.467174,10.8684766 239.980425,10.5283448 239.393455,10.5 C238.205196,10.5425171 237.231698,10.8613908 236.472931,11.4566305 Z M268.346043,1.78588038 C267.416576,1.93805182 266.382728,2.31516669 265.244468,2.91723631 C264.106208,3.51930593 263.26768,4.26361161 262.728858,5.15017566 C261.75898,7.00269757 261.405384,9.02720901 261.668059,11.2237707 C261.930735,13.4203324 262.775998,15.3522191 264.203875,17.0194888 C265.631751,18.6867586 266.90133,19.9471162 268.012649,20.8005995 C269.123968,21.6540828 269.949026,22.2329872 270.487847,22.5373301 C270.407024,23.7547016 270.194866,24.8794302 269.851368,25.9115495 C269.507869,26.9436689 268.911807,27.4531048 268.063163,27.4398725 C266.904697,27.3472464 265.736146,26.7518018 264.557474,25.653521 C263.378803,24.5552401 262.472923,23.5132122 261.839808,22.5274059 C261.206693,21.5415996 260.829523,20.80391 260.708288,20.3143149 C260.49276,20.1158304 260.277235,20.1422946 260.061706,20.3937083 C259.253474,21.8492612 259.317458,23.5330461 260.25366,25.4451133 C261.189862,27.3571806 262.483014,29.0674296 264.133155,30.5759117 C265.783295,32.0843939 267.281869,32.8717039 268.628923,32.9378654 C269.733507,33.0966529 270.70337,32.9510998 271.538544,32.5012017 C272.373717,32.0513035 273.030395,31.1019002 273.508599,29.6529635 C273.986803,28.2040267 274.340399,26.4739295 274.569398,24.46262 C274.960044,24.6478722 275.724485,24.9522105 276.862745,25.3756441 C278.001005,25.7990777 279.071897,26.0901839 280.075452,26.2489715 C281.079006,26.4077591 282.032032,26.526848 282.934558,26.6062418 C283.837084,26.6856356 284.537541,26.7054837 285.035951,26.6657868 C285.399655,26.5731607 285.544461,26.3912193 285.470373,26.1199572 C285.396286,25.8486951 284.995543,25.6733697 284.268134,25.5939759 C282.65167,25.1573101 281.011657,24.5817137 279.348046,23.8671695 C277.684436,23.1526253 276.259948,22.1999141 275.074541,21.0090071 C275.343952,17.7009323 275.391098,14.8163343 275.215981,12.3551266 C275.040864,9.89391896 274.710841,7.28057903 274.225902,4.51502847 C276.233011,4.59442227 278.240091,4.84914021 280.2472,5.27918994 C282.25431,5.70923967 284.200773,6.23190765 286.086647,6.84720957 C287.972522,7.46251149 289.366701,8.03479985 290.269227,8.56409183 C290.686814,8.69641482 290.92928,8.56409381 290.996632,8.16712483 C291.050514,7.42611607 290.45782,6.66527027 289.218531,5.88456461 C287.979242,5.10385894 286.568224,4.43563785 284.985437,3.87988128 C283.402649,3.32412471 281.870399,2.86761723 280.38864,2.51034514 C278.906881,2.15307306 277.330852,1.88843104 275.660506,1.71641115 C273.99016,1.54439126 272.585878,1.47492273 271.447618,1.50800348 C270.309358,1.54108423 269.27551,1.63370893 268.346043,1.78588038 Z M272.995265,10.2828947 C272.965275,12.203957 272.927788,13.8552563 272.882804,15.2368421 C272.837819,16.618428 272.72536,17.5394714 272.545421,18 C271.61574,17.4868395 270.787287,16.9342135 270.060036,16.3421053 C269.332785,15.749997 268.635535,14.8684269 267.968264,13.6973684 C267.300993,12.5263099 266.978608,11.1677709 267.0011,9.62171053 C267.023592,8.07565016 267.443442,6.87171484 268.260662,6.00986842 C269.077882,5.14802201 270.543607,4.64473757 272.657882,4.5 C272.912795,6.4342202 273.025254,8.3618325 272.995265,10.2828947 Z M279.181981,11.8257194 C278.971692,12.0737437 278.943654,12.3870329 279.097865,12.7655964 C279.350212,12.961405 279.637603,13.3889142 279.960046,14.0481368 C280.282489,14.7073593 280.689042,15.4155234 281.179716,16.1726503 C281.67039,16.9297772 282.3398,17.8076396 283.187965,18.8062639 C284.036131,19.8048881 284.579369,20.4020956 284.817697,20.5979043 C285.308371,20.9503599 285.693895,21.0711068 285.97428,20.9601485 C286.254666,20.8491903 286.429904,20.6501211 286.5,20.3629351 C286.5,19.2272447 286.149524,17.5596325 285.44856,15.3600484 C284.747597,13.1604642 284.341045,11.8518292 284.228891,11.434104 C283.906447,10.6378154 283.233533,10.3506336 282.210127,10.5725501 C280.471738,11.0947066 279.462366,11.5124255 279.181981,11.8257194 Z M306.732282,1.98204431 C306.580562,2.40578792 306.549529,3.85127873 306.639182,6.31856008 C306.728834,8.78584144 306.952962,11.3248477 307.311572,13.9356552 C305.408181,14.2090381 303.57723,14.5849341 301.818663,15.0633543 C300.060096,15.5417745 298.753258,15.9928497 297.898112,16.4165933 C297.042966,16.8403369 296.456785,17.2230673 296.139554,17.564796 C296.167139,17.7151567 296.277479,17.7971703 296.470576,17.8108395 C297.215381,17.7014863 298.791172,17.5716313 301.197995,17.4212707 C303.604819,17.27091 305.746101,17.2640756 307.621906,17.4007671 C307.718454,18.1935777 307.815002,19.0000454 307.91155,19.8201943 C308.008099,20.6403432 308.180505,21.6723485 308.428774,22.916241 C306.277115,23.0802708 303.970323,23.3946565 301.508329,23.8594076 C299.046335,24.3241586 296.567137,24.9426783 294.070661,25.7149852 C291.574186,26.4872921 290.084598,27.1058118 289.601854,27.5705629 C289.381171,28.0489831 289.519096,28.322362 290.015633,28.3907077 C291.063877,28.3360311 292.587945,28.2130106 294.587884,28.0216426 C296.587824,27.8302745 298.918752,27.649161 301.58074,27.4782966 C304.242728,27.3074323 306.84261,27.2288358 309.380464,27.242505 C309.904586,28.8281262 310.452837,30.1813517 311.025233,31.3022219 C311.59763,32.4230921 312.207947,33.3935871 312.856203,34.213736 C313.311362,34.6648179 313.504456,34.5828043 313.435493,33.9676926 C313.21481,33.0518596 313.063093,32.101868 312.980336,31.1176893 C312.89758,30.1335106 312.828618,28.923809 312.773447,27.4885484 C313.697557,27.4338718 314.935432,27.4065339 316.487109,27.4065339 C318.038786,27.4065339 319.007707,27.2835134 319.393902,27.0374688 C319.531829,26.9007773 319.535277,26.535133 319.404247,25.9405251 C319.273216,25.3459171 319.207702,24.6385493 319.207702,23.8184003 C319.207702,22.9982514 319.076674,22.4719971 318.814613,22.2396215 C318.6491,22.10293 318.335322,22.0824266 317.873267,22.1781107 C317.411212,22.2737947 316.669866,22.3899807 315.649207,22.5266722 C314.628549,22.6633637 313.683764,22.7453774 312.814825,22.7727157 C312.745862,20.8316965 312.752758,19.0889062 312.835514,17.5442924 C313.828587,17.5169541 314.783716,17.4964507 315.70093,17.4827815 C316.618143,17.4691124 317.490517,17.5511261 318.318078,17.728825 C318.731859,17.728825 318.924954,17.5101219 318.897368,17.0727091 C318.828405,16.7583187 318.824957,16.0987922 318.887024,15.0941097 C318.949091,14.0894273 318.952539,13.5187489 318.897368,13.3820574 C318.787027,13.1360127 317.976719,13.0574163 316.46642,13.1462658 C314.956121,13.2351152 313.787209,13.3342151 312.959648,13.4435683 C312.945855,12.5824119 312.976888,10.5696599 313.052748,7.40525198 C313.128607,4.24084403 313.090678,2.43312622 312.938959,1.98204431 C312.732068,1.65398474 311.659703,1.49337465 309.721831,1.50020922 C307.783959,1.5070438 306.787453,1.66765389 306.732282,1.98204431 Z M338.25166,3.32141363 C337.093025,3.46681568 335.779476,3.76422448 334.310973,4.21364898 C333.138865,4.80847552 332.81553,5.31076595 333.340957,5.72053534 C333.448737,5.90559248 334.337909,6.09395139 336.0085,6.28561772 C337.67909,6.47728405 339.167779,6.70199293 340.474612,6.95975109 C341.781445,7.21750926 343.344232,7.56779074 345.16302,8.01060606 C346.981807,8.45342137 348.025911,8.77396197 348.295361,8.97223748 C348.389668,9.2894783 348.12359,10.555118 347.497119,12.7691946 C346.870648,14.9832711 346.264394,16.9792147 345.67834,18.7570851 C345.092286,20.5349555 344.576971,22.1244404 344.132378,23.5255873 C343.687786,24.9267343 343.15563,26.3939511 342.535895,27.9272817 C341.91616,27.5175123 341.020252,26.7442494 339.848144,25.6074698 C338.676036,24.4706902 337.42648,23.2248777 336.099439,21.8699951 C334.772397,20.5151124 333.361174,18.9652821 331.865726,17.2204576 C330.370278,15.475633 329.514787,14.6561066 329.299227,14.7618535 C328.895052,14.6957617 328.164179,15.0956113 327.106588,15.9614143 C326.048996,16.8272174 325.513473,17.5112577 325.5,18.0135556 C325.580835,18.277923 326.197193,18.8826542 327.349092,19.8277675 C328.500991,20.7728808 330.003152,21.9691251 331.855621,23.4165363 C333.708091,24.8639476 335.63463,26.3278598 337.635296,27.808317 C339.635963,29.2887741 341.114548,30.4387549 342.071096,31.2582936 C342.475271,31.4697875 342.849127,31.5424875 343.192676,31.4763956 C343.536225,31.4103038 343.782094,31.2847312 343.930292,31.099674 C344.294049,30.9146169 345.082179,29.7051544 346.294704,27.4712503 C347.507229,25.2373462 348.713,22.7721576 349.912053,20.0756107 C351.111106,17.3790637 352.209098,14.827957 353.206064,12.4222141 C354.203029,10.0164713 354.896852,8.20558208 355.287555,6.98949227 C355.678257,5.77340246 355.530062,4.92743963 354.842964,4.4515784 C354.357954,4.06824575 352.687389,3.71796426 349.831218,3.40072344 C346.975048,3.08348262 344.620763,2.95460547 342.768294,3.01408813 C340.915825,3.07357078 339.410295,3.17601159 338.25166,3.32141363 Z M333.972931,11.4566305 C333.214164,12.0518703 332.899208,12.5833264 333.028056,13.0510147 C333.12827,13.2919451 333.371645,13.5966466 333.758187,13.9651284 C334.144728,14.3336101 334.678005,14.9040397 335.358032,15.6764341 C336.038059,16.4488285 337.050927,17.4302508 338.396665,18.6207303 C339.742403,19.8112098 340.558424,20.5623344 340.844751,20.8741266 C341.331507,21.0867123 341.675095,21.0300236 341.875524,20.704059 C342.190484,20.3072325 341.90774,19.0955126 341.027284,17.068863 C340.146827,15.0422133 339.255647,13.1927462 338.353716,11.5204059 C337.967174,10.8684766 337.480425,10.5283448 336.893455,10.5 C335.705196,10.5425171 334.731698,10.8613908 333.972931,11.4566305 Z" id="MASTER-SWORD-2" sketch:type="MSShapeGroup"></path>
            <path d="M90.8056856,41.579399 C89.0924462,42.1090265 87.3757503,42.8041521 85.6555466,43.6647968 C83.9353428,44.5254414 82.1107006,45.5383388 80.1815652,46.7035192 C78.2524298,47.8686997 76.4034126,49.1000651 74.6344581,50.3976524 C72.8655036,51.6952397 71.6084504,52.7908902 70.863261,53.6846365 C70.1180715,54.5783829 69.6096788,55.1973757 69.3380677,55.5416336 C69.0664565,55.8858914 68.9585102,56.3162073 69.0142253,56.8325941 C69.3345871,56.9914824 69.7803012,56.8325965 70.351381,56.3559318 C70.8110306,55.9189891 71.4308518,55.3959898 72.2108633,54.7869182 C72.9908747,54.1778466 74.2235528,53.4429995 75.9089347,52.5823548 C77.5943165,51.7217102 79.279673,51.0199643 80.9650549,50.4770961 C81.3550606,51.4436663 81.6893462,52.4036017 81.9679217,53.3569312 C82.2464972,54.3102606 82.46239,55.3363985 82.6156065,56.4353755 C81.7938088,56.4883382 80.9929162,56.5379901 80.2129048,56.5843325 C79.4328933,56.6306749 78.6807507,56.660466 77.9564544,56.6737067 C77.2739444,56.7266694 76.9675159,56.9649982 77.0371598,57.3887002 C77.3575217,58.0639752 78.3116285,58.6928984 79.8995089,59.2754886 C81.4873893,59.8580789 82.5668532,60.1824708 83.137933,60.2486743 C83.5418675,61.572743 83.8482959,62.8438299 84.0572276,64.0619731 C82.789709,63.9957696 81.4421202,63.8732951 80.0144207,63.6945458 C78.5867212,63.5157966 77.7057394,63.4264233 77.3714488,63.4264233 C76.7864402,63.4926267 76.5078689,63.7574365 76.5357264,64.2208605 C76.5914415,64.6842845 76.84912,65.1410814 77.3087696,65.5912648 C78.2837839,66.5048722 80.2094082,67.5442505 83.0857003,68.7094309 C85.9619925,69.8746114 87.7622597,70.4704334 88.486556,70.4969147 C88.9462056,70.5498775 89.3118305,69.9209543 89.5834416,68.6101263 C89.8550527,67.2992983 89.9072849,66.4188058 89.7401396,65.9686224 C89.7262108,65.6111239 89.3640681,65.3198332 88.6537005,65.0947415 C87.7204725,64.8034464 86.9474371,64.5982188 86.334571,64.4790526 C86.5017163,63.9494251 86.6479662,63.4231157 86.7733252,62.9001086 C86.8986842,62.3771014 87.0449341,61.6190835 87.2120795,60.626032 C88.5910282,60.626032 90.011742,60.6127915 91.4742634,60.5863101 C92.9367849,60.5598287 94.5803557,60.4572149 96.4050253,60.2784657 C98.2296949,60.0997164 99.1838017,59.8779382 99.2673744,59.6131245 C99.5180923,59.3615514 99.6016637,58.9643368 99.5180911,58.4214686 C99.4484472,57.812397 99.2987151,57.1768536 99.0688903,56.5148192 C98.8390655,55.8527849 98.654512,55.3496463 98.5152242,55.0053884 C98.3202214,54.6743713 98.0416501,54.5154854 97.6795019,54.5287261 C97.2477099,54.489004 96.4572637,54.6048583 95.3081397,54.8762924 C94.1590157,55.1477265 92.8706233,55.3827451 91.4429239,55.5813555 C90.0152244,55.7799658 88.6119213,55.9322314 87.2329725,56.0381569 C87.205115,54.7008475 87.1528828,53.5687857 87.0762746,52.6419376 C86.9996663,51.7150896 86.7733271,50.2784966 86.3972502,48.3321156 C87.0797602,47.8157288 87.9154742,47.3556218 88.9044172,46.9517809 C89.8933603,46.5479399 90.8788064,46.2003771 91.860785,45.909082 C92.8427637,45.6177869 93.9291919,45.4489706 95.1201022,45.4026282 C96.3110125,45.3562858 97.0805658,45.6707474 97.4287852,46.3460225 C97.8884348,48.1070338 97.6655777,49.6694115 96.7602073,51.0332022 C96.593062,51.3244973 96.593062,51.5893071 96.7602073,51.8276395 C97.3870022,51.9600463 98.1461091,51.9534261 99.0375507,51.8077785 C100.277212,51.7283344 101.154711,50.6889561 101.670076,48.6896123 C101.990438,47.1934147 102.077492,45.8031634 101.931239,44.5188168 C101.784987,43.2344702 101.36713,42.3109461 100.677656,41.7482169 C99.9881814,41.1854877 99.2917531,40.8180642 98.58835,40.6459352 C97.8849468,40.4738063 96.8403043,40.4539456 95.4543911,40.5863524 C94.068478,40.7187593 92.5189249,41.0497715 90.8056856,41.579399 Z M106.186992,44.0894147 C105.518453,45.2565744 105.122793,46.1969788 105,46.910656 C105.368379,47.1931533 106.43939,47.4198911 108.213066,47.5908763 C109.986741,47.7618615 111.924112,47.8882399 114.025235,47.9700154 C116.126359,48.051791 118.575359,47.9662997 121.372309,47.713539 C122.27279,47.6243293 123.282406,47.5091019 124.401186,47.3678533 C125.519966,47.2266046 126.584155,47.0221689 127.593786,46.7545399 C128.603417,46.4869109 129.657374,46.1449457 130.755688,45.728634 C131.854003,45.3123222 132.710129,44.7547702 133.324094,44.0559612 C133.583324,43.8032005 133.556037,43.6247839 133.242233,43.520706 C131.100178,43.5950473 129.193505,43.6359345 127.522157,43.6433686 C125.850809,43.6508028 124.285223,43.6024816 122.825351,43.4984037 C121.36548,43.3943257 119.530435,43.2567962 117.320162,43.085811 C115.10989,42.9148259 113.141821,42.684371 111.415898,42.3944396 C109.689976,42.1045082 108.451832,41.9744128 107.701431,42.0041493 C107.360339,42.2271735 106.855532,42.922255 106.186992,44.0894147 Z M104.637897,51.499564 C103.840057,52.600302 103.461777,53.3251673 103.503044,53.6741818 C103.805673,53.9023836 104.269927,54.0735323 104.895818,54.1876332 C105.52171,54.3017341 106.219809,54.4057657 106.990137,54.4997311 C107.416569,55.9629072 108.210958,57.9193724 109.373328,60.3691855 C110.535698,62.8189987 111.732439,64.9701037 112.963589,66.8225651 C114.194738,68.6750265 115.388041,70.3865141 116.543533,71.9570792 C117.066255,72.1987046 118.551866,71.4201456 121.000409,69.6213787 C121.248014,69.3126351 121.303037,69.0710133 121.165478,68.8965061 L120.381398,68.1514982 C121.605669,67.1984202 122.891823,65.9533969 124.239897,64.4163908 C125.587971,62.8793848 126.863808,61.2517936 128.067445,59.5335685 C129.271083,57.8153434 130.271807,56.147482 131.069646,54.5299341 C131.867486,52.9123863 132.472735,51.902273 132.885411,51.499564 L133.380619,51.096857 C133.504422,50.8820789 133.531933,50.667304 133.463154,50.4525258 C133.256816,50.3048659 132.644689,50.3149335 131.626756,50.4827289 C130.608822,50.6505243 128.260045,50.7109297 124.580353,50.663947 C120.900661,50.6169643 117.668083,50.4961534 114.882521,50.3015107 C112.09696,50.106868 110.092074,49.9055166 108.867802,49.6974502 C107.643531,49.4893839 106.818192,49.4457578 106.39176,49.5665705 C106.020352,49.7545013 105.435737,50.3988261 104.637897,51.499564 Z M126,54 C125.712327,54.9350227 125.339043,55.8447609 124.880137,56.7292419 C124.421231,57.6137228 123.684937,58.760372 122.671233,60.1692238 C121.657529,61.5780756 120.904112,62.5667842 120.410959,63.1353791 C119.917806,63.703974 119.397263,64.1588431 118.849315,64.5 C117.73972,63.3754456 116.582198,62.0613794 115.376712,60.5577617 C114.171227,59.0541441 113.215757,57.78746 112.510274,56.7576715 C111.804791,55.7278829 111.301371,54.9097503 111,54.3032491 C112.57535,54.3537909 114.431496,54.4011731 116.568493,54.4453971 C118.70549,54.4896212 120.619855,54.4611918 122.311644,54.3601083 C124.003433,54.2590248 125.232873,54.1389899 126,54 Z M140.670279,41.4093537 C140.697872,42.0093933 140.853079,43.7378904 141.135904,46.5948968 C141.41873,49.4519033 141.642917,51.4872341 141.808474,52.7009505 C141.97403,53.9146668 142.056807,54.7738015 142.056807,55.2783802 C140.553003,55.5647627 139.387227,55.8886428 138.559445,56.2500302 C137.731663,56.6114177 136.959078,57.1909926 136.241667,57.9887725 C135.524256,58.7865523 135.110371,59.9491115 135,61.4764849 C135.137964,61.7628674 136.365822,61.7287747 138.683612,61.3742059 C139.014725,60.2423132 139.528632,59.492275 140.225348,59.1240689 C140.922065,58.7558628 141.718793,58.5853996 142.615557,58.6126741 C142.974263,60.6446262 143.257084,62.2231156 143.46403,63.3481898 C143.670975,64.4732639 143.822733,65.4789969 143.919308,66.365419 C142.332725,66.0790365 140.884128,65.8710713 139.573473,65.7415173 C138.262818,65.6119633 137.055654,65.5471873 135.951945,65.5471873 C135.717406,65.5744618 135.700161,65.8403845 135.900209,66.3449632 C136.100256,66.8495419 136.400322,67.4086613 136.800417,68.0223381 C137.200512,68.6360149 137.414352,69.2019528 137.441945,69.7201687 C137.455741,70.1292866 137.845483,70.3270239 138.611181,70.3133867 C139.37688,70.2997494 140.766843,70.3474791 142.781113,70.4565772 C144.795383,70.5656753 147.516675,70.9066017 150.945073,71.4793668 C154.37347,72.0521318 156.774003,72.5157917 158.146741,72.8703606 C159.51948,73.2249294 160.45417,73.4294852 160.950839,73.4840343 C161.461305,73.5385833 161.782065,73.4533517 161.913131,73.2283369 C162.044196,73.0033221 162.026951,72.7612643 161.861395,72.5021563 C161.585467,72.1884993 160.864618,71.7350671 159.698825,71.1418462 C158.533032,70.5486253 156.991311,69.8906373 155.073616,69.1678624 C153.15592,68.4450875 150.672611,67.7291419 147.623614,67.0200043 C147.499447,66.0381214 147.389077,64.8346511 147.292503,63.4095571 C147.195928,61.9844632 147.140743,60.2355106 147.126947,58.1626467 C148.341028,58.2171958 149.355045,58.4149331 150.169031,58.7558647 C150.983017,59.0967962 151.748704,59.519545 152.466115,60.0241237 L152.817921,61.9674239 C152.900699,62.1037965 153.169724,62.0935687 153.625004,61.9367402 C154.080284,61.7799117 154.763194,61.8003673 155.673755,61.9981076 C156.584315,62.1958479 157.194795,62.4242686 157.505213,62.6833766 C157.815632,62.9424845 158.039819,62.9970328 158.177783,62.8470229 C158.108801,62.2333461 158.00533,58.8274909 157.867366,52.6293552 C157.729402,46.4312195 157.625931,43.1821905 157.556949,42.8821707 C157.487968,42.6094255 156.470501,42.2753175 154.504518,41.8798369 C152.538536,41.4843563 151.514171,41.3548043 151.431392,41.4911769 C151.334818,42.2412263 151.54176,47.3755786 152.052226,56.8943877 C151.058887,56.389809 150.15179,56.0216084 149.330906,55.7897749 C148.510022,55.5579415 147.775376,55.4011153 147.126947,55.3192917 C146.975187,52.0190743 146.920002,48.9643733 146.961392,46.1550973 C147.002781,43.3458213 147.013128,41.7673318 146.992433,41.4195816 C146.971739,41.0718315 146.82343,40.9047775 146.547503,40.9184148 C143.070818,40.5092969 141.222132,40.4002004 141.00139,40.5911221 C140.725463,40.741132 140.615094,41.0138731 140.670279,41.4093537 Z M171.019133,45.2932676 C169.86409,47.0463086 168.954594,48.6688508 168.290617,50.1609429 C167.62664,51.653035 166.886594,53.4093951 166.070456,55.4300759 C165.254318,57.4507567 164.676805,59.096717 164.337901,60.3680062 C163.998996,61.6392954 163.760383,62.7667114 163.622054,63.7502878 C163.483726,64.7338642 163.462977,65.9884071 163.559807,67.5139542 C163.877962,69.0127373 164.396686,70.0397898 165.115994,70.5951424 C165.835303,71.1504951 166.921165,71.5352216 168.373614,71.7493335 C169.826063,71.9634453 171.451398,72.0403906 173.249668,71.9801717 C175.047938,71.9199527 177.143583,71.6322442 179.536666,71.1170375 C181.929749,70.6018308 184.039226,69.9795775 185.865162,69.250259 C187.691098,68.5209404 189.043239,67.9555597 189.921625,67.5541 C190.80001,67.1526402 191.336025,66.8180954 191.529685,66.5504556 C191.695679,66.2292878 191.834006,65.6873252 191.944668,64.9245517 C192.055331,64.1617781 192.000001,63.7937789 191.778675,63.8205429 C191.612681,63.7670149 190.696268,64.1383596 189.02941,64.9345881 C187.362552,65.7308166 185.809838,66.2961973 184.371222,66.6307471 C182.932606,66.9652969 181.922823,67.1392602 181.341844,67.1526422 C181.245014,65.4129833 181.172392,63.8506591 181.123977,62.465623 C181.075562,61.0805868 181.085937,59.9264073 181.155101,59.0030499 C182.483055,58.9629039 183.855944,58.9595584 185.273811,58.9930134 C186.691678,59.0264684 187.919325,59.1368682 188.956788,59.3242161 C189.399439,59.35098 189.62422,59.2706893 189.631136,59.0833414 C189.638053,58.8959935 189.523933,58.7086484 189.288775,58.5213006 C188.956787,58.1198408 188.361983,57.6815871 187.504346,57.2065264 C186.64671,56.7314657 185.61272,56.2965575 184.402346,55.9017887 C183.191972,55.50702 182.081902,55.149057 181.072104,54.8278892 C181.058272,52.6867705 181.072104,50.9203741 181.113603,49.5286469 C181.155101,48.1369198 181.248472,46.7184499 181.393717,45.2731948 C181.538961,43.8279396 181.618499,42.8979051 181.632332,42.4830634 C181.659998,42.0816036 181.528588,41.8875677 181.238098,41.9009497 C180.933775,41.9410956 180.404677,42.8510574 179.650786,44.6308624 C178.896896,46.4106673 178.281344,48.1302275 177.804111,49.7895945 C177.326877,51.4489615 176.977603,52.9209585 176.756278,54.2056297 C175.760313,54.0985738 174.8439,53.9982104 174.007013,53.9045364 C173.170126,53.8108625 172.426621,53.7439535 171.776477,53.7038075 C172.011636,52.7804501 172.357452,51.5426344 172.813936,49.9903233 C173.27042,48.4380123 173.844474,46.7686338 174.536117,44.9821379 C175.227759,43.195642 175.635822,42.008008 175.760318,41.4192003 C175.87098,40.9642126 175.791443,40.6765041 175.521702,40.5560662 C175.251962,40.4356283 174.944185,40.5092281 174.598364,40.7768679 C173.367241,42.0347752 172.174175,43.5402267 171.019133,45.2932676 Z M177,58.5510613 C176.941956,59.6744128 176.840382,60.836043 176.695273,62.0359866 C176.550164,63.2359303 176.506632,64.9081671 176.564676,67.0527473 C174.315488,67.5633616 172.566953,67.6367613 171.319017,67.2729486 C170.07108,66.9091359 169.46526,66.0060003 169.501537,64.5635149 C169.537814,63.1210294 169.711942,61.8859996 170.023926,60.8583882 C170.335911,59.8307769 170.593475,59.131884 170.796627,58.7616886 C171.420595,58.6212697 172.305746,58.5382961 173.452106,58.5127654 C174.598466,58.4872347 175.781086,58.4999999 177,58.5510613 Z M218.896064,43.5104988 C218.695592,45.173265 218.348114,46.6896851 217.853618,48.0598044 C217.025003,48.1396172 215.040367,48.3225187 211.899649,48.6085145 C208.758931,48.8945103 205.638308,49.3501014 202.537685,49.9753015 C201.014102,50.3743654 200.1855,50.6936117 200.051852,50.93305 C199.771193,51.3321139 199.771193,51.8641911 200.051852,52.5292976 C200.399336,53.6200722 200.840366,55.1065629 201.374957,56.9888142 C201.909547,58.8710656 202.527658,60.8264493 203.229307,62.855024 C203.930957,64.8835988 204.422104,65.9377768 204.702764,66.0175895 C204.94333,66.2304236 205.377678,66.2304236 206.005821,66.0175895 C206.633965,65.8047555 207.028219,65.5653207 207.188596,65.2992781 C207.482621,64.8204015 207.562808,64.3681358 207.429161,63.9424677 C207.415796,62.8915995 207.258762,61.4017833 206.958055,59.4729745 C206.657348,57.5441657 206.410104,55.9944909 206.216315,54.8239035 C206.022526,53.6533161 205.972409,52.8086435 206.065962,52.2898605 C206.119421,52.1169328 206.704121,51.9074274 207.820078,51.661338 C208.936035,51.4152486 209.741249,51.2789038 210.235745,51.2522995 C210.556499,51.6912698 210.987506,52.9981844 211.528779,55.1730826 C212.070052,57.3479808 212.68148,60.5637224 213.363083,64.8204039 C213.643742,66.576285 213.703883,67.7402038 213.543506,68.3121954 C213.383129,68.884187 213.03565,69.3164997 212.50106,69.6091466 C211.96647,69.9017934 211.355041,70.064742 210.666757,70.0979974 C209.978472,70.1312527 209.260127,70.1112998 208.5117,70.0381381 C207.763274,69.9649764 206.069317,69.5193617 203.429778,68.7012808 C200.790238,67.8831998 198.59511,66.9753431 196.844327,65.9776833 C195.828606,65.3391811 195.213836,65.1130483 195,65.2992781 C195,66.4698655 195.427666,67.3477929 196.28301,67.9330866 C197.37892,68.6514016 199.206523,69.53598 201.765874,70.5868482 C204.325224,71.6377164 206.770938,72.38595 209.103088,72.8315713 C211.435238,73.2771927 213.102466,73.5 214.104823,73.5 C215.107179,73.5 216.096157,73.3270749 217.071784,72.9812195 C218.047411,72.6353642 218.708956,72.1232399 219.05644,71.4448313 C219.176723,71.0590695 219.327074,70.5901765 219.507498,70.0381381 C219.687922,69.4860997 219.754745,68.6281252 219.707969,67.4641889 C219.661192,66.3002525 219.256914,63.9823912 218.495123,60.5105354 L218.013994,58.515226 C216.918084,54.7773276 216.136258,52.2566118 215.668491,50.9530031 C216.096164,50.8731903 217.265562,50.8632139 219.176722,50.9230735 C221.087882,50.9829331 222.19714,50.8798431 222.50453,50.6138005 C222.972296,50.4275707 223.520243,48.8612684 224.148386,45.9148467 C224.77653,42.968425 225.057186,41.3156602 224.990362,40.9565027 C224.896809,40.6904601 224.081571,40.5408134 222.544624,40.5075581 C221.007677,40.4743028 219.985288,40.5507889 219.477428,40.7370187 C219.290321,40.9232485 219.096535,41.8477326 218.896064,43.5104988 Z M243.732282,40.9820443 C243.580562,41.4057879 243.549529,42.8512787 243.639182,45.3185601 C243.728834,47.7858414 243.952962,50.3248477 244.311572,52.9356552 C242.408181,53.2090381 240.57723,53.5849341 238.818663,54.0633543 C237.060096,54.5417745 235.753258,54.9928497 234.898112,55.4165933 C234.042966,55.8403369 233.456785,56.2230673 233.139554,56.564796 C233.167139,56.7151567 233.277479,56.7971703 233.470576,56.8108395 C234.215381,56.7014863 235.791172,56.5716313 238.197995,56.4212707 C240.604819,56.27091 242.746101,56.2640756 244.621906,56.4007671 C244.718454,57.1935777 244.815002,58.0000454 244.91155,58.8201943 C245.008099,59.6403432 245.180505,60.6723485 245.428774,61.916241 C243.277115,62.0802708 240.970323,62.3946565 238.508329,62.8594076 C236.046335,63.3241586 233.567137,63.9426783 231.070661,64.7149852 C228.574186,65.4872921 227.084598,66.1058118 226.601854,66.5705629 C226.381171,67.0489831 226.519096,67.322362 227.015633,67.3907077 C228.063877,67.3360311 229.587945,67.2130106 231.587884,67.0216426 C233.587824,66.8302745 235.918752,66.649161 238.58074,66.4782966 C241.242728,66.3074323 243.84261,66.2288358 246.380464,66.242505 C246.904586,67.8281262 247.452837,69.1813517 248.025233,70.3022219 C248.59763,71.4230921 249.207947,72.3935871 249.856203,73.213736 C250.311362,73.6648179 250.504456,73.5828043 250.435493,72.9676926 C250.21481,72.0518596 250.063093,71.101868 249.980336,70.1176893 C249.89758,69.1335106 249.828618,67.923809 249.773447,66.4885484 C250.697557,66.4338718 251.935432,66.4065339 253.487109,66.4065339 C255.038786,66.4065339 256.007707,66.2835134 256.393902,66.0374688 C256.531829,65.9007773 256.535277,65.535133 256.404247,64.9405251 C256.273216,64.3459171 256.207702,63.6385493 256.207702,62.8184003 C256.207702,61.9982514 256.076674,61.4719971 255.814613,61.2396215 C255.6491,61.10293 255.335322,61.0824266 254.873267,61.1781107 C254.411212,61.2737947 253.669866,61.3899807 252.649207,61.5266722 C251.628549,61.6633637 250.683764,61.7453774 249.814825,61.7727157 C249.745862,59.8316965 249.752758,58.0889062 249.835514,56.5442924 C250.828587,56.5169541 251.783716,56.4964507 252.70093,56.4827815 C253.618143,56.4691124 254.490517,56.5511261 255.318078,56.728825 C255.731859,56.728825 255.924954,56.5101219 255.897368,56.0727091 C255.828405,55.7583187 255.824957,55.0987922 255.887024,54.0941097 C255.949091,53.0894273 255.952539,52.5187489 255.897368,52.3820574 C255.787027,52.1360127 254.976719,52.0574163 253.46642,52.1462658 C251.956121,52.2351152 250.787209,52.3342151 249.959648,52.4435683 C249.945855,51.5824119 249.976888,49.5696599 250.052748,46.405252 C250.128607,43.240844 250.090678,41.4331262 249.938959,40.9820443 C249.732068,40.6539847 248.659703,40.4933747 246.721831,40.5002092 C244.783959,40.5070438 243.787453,40.6676539 243.732282,40.9820443 Z M269.670279,41.4093537 C269.697872,42.0093933 269.853079,43.7378904 270.135904,46.5948968 C270.41873,49.4519033 270.642917,51.4872341 270.808474,52.7009505 C270.97403,53.9146668 271.056807,54.7738015 271.056807,55.2783802 C269.553003,55.5647627 268.387227,55.8886428 267.559445,56.2500302 C266.731663,56.6114177 265.959078,57.1909926 265.241667,57.9887725 C264.524256,58.7865523 264.110371,59.9491115 264,61.4764849 C264.137964,61.7628674 265.365822,61.7287747 267.683612,61.3742059 C268.014725,60.2423132 268.528632,59.492275 269.225348,59.1240689 C269.922065,58.7558628 270.718793,58.5853996 271.615557,58.6126741 C271.974263,60.6446262 272.257084,62.2231156 272.46403,63.3481898 C272.670975,64.4732639 272.822733,65.4789969 272.919308,66.365419 C271.332725,66.0790365 269.884128,65.8710713 268.573473,65.7415173 C267.262818,65.6119633 266.055654,65.5471873 264.951945,65.5471873 C264.717406,65.5744618 264.700161,65.8403845 264.900209,66.3449632 C265.100256,66.8495419 265.400322,67.4086613 265.800417,68.0223381 C266.200512,68.6360149 266.414352,69.2019528 266.441945,69.7201687 C266.455741,70.1292866 266.845483,70.3270239 267.611181,70.3133867 C268.37688,70.2997494 269.766843,70.3474791 271.781113,70.4565772 C273.795383,70.5656753 276.516675,70.9066017 279.945073,71.4793668 C283.37347,72.0521318 285.774003,72.5157917 287.146741,72.8703606 C288.51948,73.2249294 289.45417,73.4294852 289.950839,73.4840343 C290.461305,73.5385833 290.782065,73.4533517 290.913131,73.2283369 C291.044196,73.0033221 291.026951,72.7612643 290.861395,72.5021563 C290.585467,72.1884993 289.864618,71.7350671 288.698825,71.1418462 C287.533032,70.5486253 285.991311,69.8906373 284.073616,69.1678624 C282.15592,68.4450875 279.672611,67.7291419 276.623614,67.0200043 C276.499447,66.0381214 276.389077,64.8346511 276.292503,63.4095571 C276.195928,61.9844632 276.140743,60.2355106 276.126947,58.1626467 C277.341028,58.2171958 278.355045,58.4149331 279.169031,58.7558647 C279.983017,59.0967962 280.748704,59.519545 281.466115,60.0241237 L281.817921,61.9674239 C281.900699,62.1037965 282.169724,62.0935687 282.625004,61.9367402 C283.080284,61.7799117 283.763194,61.8003673 284.673755,61.9981076 C285.584315,62.1958479 286.194795,62.4242686 286.505213,62.6833766 C286.815632,62.9424845 287.039819,62.9970328 287.177783,62.8470229 C287.108801,62.2333461 287.00533,58.8274909 286.867366,52.6293552 C286.729402,46.4312195 286.625931,43.1821905 286.556949,42.8821707 C286.487968,42.6094255 285.470501,42.2753175 283.504518,41.8798369 C281.538536,41.4843563 280.514171,41.3548043 280.431392,41.4911769 C280.334818,42.2412263 280.54176,47.3755786 281.052226,56.8943877 C280.058887,56.389809 279.15179,56.0216084 278.330906,55.7897749 C277.510022,55.5579415 276.775376,55.4011153 276.126947,55.3192917 C275.975187,52.0190743 275.920002,48.9643733 275.961392,46.1550973 C276.002781,43.3458213 276.013128,41.7673318 275.992433,41.4195816 C275.971739,41.0718315 275.82343,40.9047775 275.547503,40.9184148 C272.070818,40.5092969 270.222132,40.4002004 270.00139,40.5911221 C269.725463,40.741132 269.615094,41.0138731 269.670279,41.4093537 Z M304.25166,42.3214136 C303.093025,42.4668157 301.779476,42.7642245 300.310973,43.213649 C299.138865,43.8084755 298.81553,44.3107659 299.340957,44.7205353 C299.448737,44.9055925 300.337909,45.0939514 302.0085,45.2856177 C303.67909,45.4772841 305.167779,45.7019929 306.474612,45.9597511 C307.781445,46.2175093 309.344232,46.5677907 311.16302,47.0106061 C312.981807,47.4534214 314.025911,47.773962 314.295361,47.9722375 C314.389668,48.2894783 314.12359,49.555118 313.497119,51.7691946 C312.870648,53.9832711 312.264394,55.9792147 311.67834,57.7570851 C311.092286,59.5349555 310.576971,61.1244404 310.132378,62.5255873 C309.687786,63.9267343 309.15563,65.3939511 308.535895,66.9272817 C307.91616,66.5175123 307.020252,65.7442494 305.848144,64.6074698 C304.676036,63.4706902 303.42648,62.2248777 302.099439,60.8699951 C300.772397,59.5151124 299.361174,57.9652821 297.865726,56.2204576 C296.370278,54.475633 295.514787,53.6561066 295.299227,53.7618535 C294.895052,53.6957617 294.164179,54.0956113 293.106588,54.9614143 C292.048996,55.8272174 291.513473,56.5112577 291.5,57.0135556 C291.580835,57.277923 292.197193,57.8826542 293.349092,58.8277675 C294.500991,59.7728808 296.003152,60.9691251 297.855621,62.4165363 C299.708091,63.8639476 301.63463,65.3278598 303.635296,66.808317 C305.635963,68.2887741 307.114548,69.4387549 308.071096,70.2582936 C308.475271,70.4697875 308.849127,70.5424875 309.192676,70.4763956 C309.536225,70.4103038 309.782094,70.2847312 309.930292,70.099674 C310.294049,69.9146169 311.082179,68.7051544 312.294704,66.4712503 C313.507229,64.2373462 314.713,61.7721576 315.912053,59.0756107 C317.111106,56.3790637 318.209098,53.827957 319.206064,51.4222141 C320.203029,49.0164713 320.896852,47.2055821 321.287555,45.9894923 C321.678257,44.7734025 321.530062,43.9274396 320.842964,43.4515784 C320.357954,43.0682457 318.687389,42.7179643 315.831218,42.4007234 C312.975048,42.0834826 310.620763,41.9546055 308.768294,42.0140881 C306.915825,42.0735708 305.410295,42.1760116 304.25166,42.3214136 Z M301.472931,50.4566305 C300.714164,51.0518703 300.399208,51.5833264 300.528056,52.0510147 C300.62827,52.2919451 300.871645,52.5966466 301.258187,52.9651284 C301.644728,53.3336101 302.178005,53.9040397 302.858032,54.6764341 C303.538059,55.4488285 304.550927,56.4302508 305.896665,57.6207303 C307.242403,58.8112098 308.058424,59.5623344 308.344751,59.8741266 C308.831507,60.0867123 309.175095,60.0300236 309.375524,59.704059 C309.690484,59.3072325 309.40774,58.0955126 308.527284,56.068863 C307.646827,54.0422133 306.755647,52.1927462 305.853716,50.5204059 C305.467174,49.8684766 304.980425,49.5283448 304.393455,49.5 C303.205196,49.5425171 302.231698,49.8613908 301.472931,50.4566305 Z M333.346043,40.7858804 C332.416576,40.9380518 331.382728,41.3151667 330.244468,41.9172363 C329.106208,42.5193059 328.26768,43.2636116 327.728858,44.1501757 C326.75898,46.0026976 326.405384,48.027209 326.668059,50.2237707 C326.930735,52.4203324 327.775998,54.3522191 329.203875,56.0194888 C330.631751,57.6867586 331.90133,58.9471162 333.012649,59.8005995 C334.123968,60.6540828 334.949026,61.2329872 335.487847,61.5373301 C335.407024,62.7547016 335.194866,63.8794302 334.851368,64.9115495 C334.507869,65.9436689 333.911807,66.4531048 333.063163,66.4398725 C331.904697,66.3472464 330.736146,65.7518018 329.557474,64.653521 C328.378803,63.5552401 327.472923,62.5132122 326.839808,61.5274059 C326.206693,60.5415996 325.829523,59.80391 325.708288,59.3143149 C325.49276,59.1158304 325.277235,59.1422946 325.061706,59.3937083 C324.253474,60.8492612 324.317458,62.5330461 325.25366,64.4451133 C326.189862,66.3571806 327.483014,68.0674296 329.133155,69.5759117 C330.783295,71.0843939 332.281869,71.8717039 333.628923,71.9378654 C334.733507,72.0966529 335.70337,71.9510998 336.538544,71.5012017 C337.373717,71.0513035 338.030395,70.1019002 338.508599,68.6529635 C338.986803,67.2040267 339.340399,65.4739295 339.569398,63.46262 C339.960044,63.6478722 340.724485,63.9522105 341.862745,64.3756441 C343.001005,64.7990777 344.071897,65.0901839 345.075452,65.2489715 C346.079006,65.4077591 347.032032,65.526848 347.934558,65.6062418 C348.837084,65.6856356 349.537541,65.7054837 350.035951,65.6657868 C350.399655,65.5731607 350.544461,65.3912193 350.470373,65.1199572 C350.396286,64.8486951 349.995543,64.6733697 349.268134,64.5939759 C347.65167,64.1573101 346.011657,63.5817137 344.348046,62.8671695 C342.684436,62.1526253 341.259948,61.1999141 340.074541,60.0090071 C340.343952,56.7009323 340.391098,53.8163343 340.215981,51.3551266 C340.040864,48.893919 339.710841,46.280579 339.225902,43.5150285 C341.233011,43.5944223 343.240091,43.8491402 345.2472,44.2791899 C347.25431,44.7092397 349.200773,45.2319077 351.086647,45.8472096 C352.972522,46.4625115 354.366701,47.0347999 355.269227,47.5640918 C355.686814,47.6964148 355.92928,47.5640938 355.996632,47.1671248 C356.050514,46.4261161 355.45782,45.6652703 354.218531,44.8845646 C352.979242,44.1038589 351.568224,43.4356379 349.985437,42.8798813 C348.402649,42.3241247 346.870399,41.8676172 345.38864,41.5103451 C343.906881,41.1530731 342.330852,40.888431 340.660506,40.7164112 C338.99016,40.5443913 337.585878,40.4749227 336.447618,40.5080035 C335.309358,40.5410842 334.27551,40.6337089 333.346043,40.7858804 Z M337.995265,49.2828947 C337.965275,51.203957 337.927788,52.8552562 337.882804,54.2368421 C337.837819,55.618428 337.72536,56.5394714 337.545421,57 C336.61574,56.4868395 335.787287,55.9342135 335.060036,55.3421053 C334.332785,54.749997 333.635535,53.8684269 332.968264,52.6973684 C332.300993,51.5263099 331.978608,50.1677709 332.0011,48.6217105 C332.023592,47.0756502 332.443442,45.8717148 333.260662,45.0098684 C334.077882,44.148022 335.543607,43.6447376 337.657882,43.5 C337.912795,45.4342202 338.025254,47.3618325 337.995265,49.2828947 Z M344.181981,50.8257194 C343.971692,51.0737437 343.943654,51.3870329 344.097865,51.7655964 C344.350212,51.961405 344.637603,52.3889142 344.960046,53.0481368 C345.282489,53.7073593 345.689042,54.4155234 346.179716,55.1726503 C346.67039,55.9297772 347.3398,56.8076396 348.187965,57.8062639 C349.036131,58.8048881 349.579369,59.4020956 349.817697,59.5979043 C350.308371,59.9503599 350.693895,60.0711068 350.97428,59.9601485 C351.254666,59.8491903 351.429904,59.6501211 351.5,59.3629351 C351.5,58.2272447 351.149524,56.5596325 350.44856,54.3600484 C349.747597,52.1604642 349.341045,50.8518292 349.228891,50.434104 C348.906447,49.6378154 348.233533,49.3506336 347.210127,49.5725501 C345.471738,50.0947066 344.462366,50.5124255 344.181981,50.8257194 Z M18.7322819,40.9820443 C18.5805624,41.4057879 18.5495293,42.8512787 18.6391818,45.3185601 C18.7288342,47.7858414 18.952962,50.3248477 19.3115717,52.9356552 C17.4081814,53.2090381 15.57723,53.5849341 13.8186628,54.0633543 C12.0600956,54.5417745 10.7532584,54.9928497 9.89811203,55.4165933 C9.04296563,55.8403369 8.45678536,56.2230673 8.13955363,56.564796 C8.16713899,56.7151567 8.27747881,56.7971703 8.47057639,56.8108395 C9.21538132,56.7014863 10.7911718,56.5716313 13.1979952,56.4212707 C15.6048185,56.27091 17.7461006,56.2640756 19.6219056,56.4007671 C19.7184544,57.1935777 19.8150017,58.0000454 19.9115505,58.8201943 C20.0080993,59.6403432 20.1805053,60.6723485 20.4287736,61.916241 C18.2771149,62.0802708 15.9703231,62.3946565 13.508329,62.8594076 C11.0463349,63.3241586 8.56713717,63.9426783 6.07066138,64.7149852 C3.57418559,65.4872921 2.08459807,66.1058118 1.60185413,66.5705629 C1.38117119,67.0489831 1.51909596,67.322362 2.01563258,67.3907077 C3.06387656,67.3360311 4.58794527,67.2130106 6.58788444,67.0216426 C8.58782361,66.8302745 10.9187522,66.649161 13.5807402,66.4782966 C16.2427282,66.3074323 18.8426102,66.2288358 21.380464,66.242505 C21.904586,67.8281262 22.4528369,69.1813517 23.0252333,70.3022219 C23.5976297,71.4230921 24.2079468,72.3935871 24.856203,73.213736 C25.3113615,73.6648179 25.5044562,73.5828043 25.4354928,72.9676926 C25.2148099,72.0518596 25.0630926,71.101868 24.9803365,70.1176893 C24.8975804,69.1335106 24.828618,67.923809 24.7734473,66.4885484 C25.6975571,66.4338718 26.9354319,66.4065339 28.4871089,66.4065339 C30.0387858,66.4065339 31.0077073,66.2835134 31.3939025,66.0374688 C31.5318293,65.9007773 31.5352774,65.535133 31.4042469,64.9405251 C31.2732164,64.3459171 31.2077022,63.6385493 31.2077022,62.8184003 C31.2077022,61.9982514 31.0766736,61.4719971 30.8146126,61.2396215 C30.6491004,61.10293 30.3353216,61.0824266 29.8732667,61.1781107 C29.4112117,61.2737947 28.6698661,61.3899807 27.6492075,61.5266722 C26.6285489,61.6633637 25.6837642,61.7453774 24.8148251,61.7727157 C24.7458617,59.8316965 24.7527579,58.0889062 24.835514,56.5442924 C25.8285873,56.5169541 26.7837163,56.4964507 27.7009298,56.4827815 C28.6181433,56.4691124 29.4905175,56.5511261 30.3180785,56.728825 C30.731859,56.728825 30.9249537,56.5101219 30.8973683,56.0727091 C30.8284049,55.7583187 30.8249568,55.0987922 30.8870239,54.0941097 C30.9490909,53.0894273 30.9525391,52.5187489 30.8973683,52.3820574 C30.7870268,52.1360127 29.9767188,52.0574163 28.4664199,52.1462658 C26.956121,52.2351152 25.7872086,52.3342151 24.9596476,52.4435683 C24.9458549,51.5824119 24.976888,49.5696599 25.0527477,46.405252 C25.1286075,43.240844 25.0906782,41.4331262 24.9389587,40.9820443 C24.7320684,40.6539847 23.6597033,40.4933747 21.7218312,40.5002092 C19.7839591,40.5070438 18.7874527,40.6676539 18.7322819,40.9820443 Z M50.2516602,42.3214136 C49.0930249,42.4668157 47.7794756,42.7642245 46.3109728,43.213649 C45.138865,43.8084755 44.8155298,44.3107659 45.3409574,44.7205353 C45.4487375,44.9055925 46.3379093,45.0939514 48.0084997,45.2856177 C49.67909,45.4772841 51.1677792,45.7019929 52.474612,45.9597511 C53.7814448,46.2175093 55.3442317,46.5677907 57.1630196,47.0106061 C58.9818074,47.4534214 60.0259107,47.773962 60.2953608,47.9722375 C60.3896683,48.2894783 60.1235904,49.555118 59.497119,51.7691946 C58.8706476,53.9832711 58.2643941,55.9792147 57.6783402,57.7570851 C57.0922863,59.5349555 56.5769708,61.1244404 56.1323782,62.5255873 C55.6877857,63.9267343 55.1556298,65.3939511 54.5358946,66.9272817 C53.9161595,66.5175123 53.0202515,65.7442494 51.8481438,64.6074698 C50.676036,63.4706902 49.4264801,62.2248777 48.0994386,60.8699951 C46.7723971,59.5151124 45.3611736,57.9652821 43.8657258,56.2204576 C42.3702779,54.475633 41.5147868,53.6561066 41.2992268,53.7618535 C40.8950517,53.6957617 40.1641794,54.0956113 39.1065879,54.9614143 C38.0489965,55.8272174 37.5134725,56.5112577 37.5,57.0135556 C37.580835,57.277923 38.1971928,57.8826542 39.3490918,58.8277675 C40.5009908,59.7728808 42.0031523,60.9691251 43.8556214,62.4165363 C45.7080906,63.8639476 47.6346296,65.3278598 49.6352962,66.808317 C51.6359629,68.2887741 53.1145479,69.4387549 54.0710956,70.2582936 C54.4752707,70.4697875 54.849127,70.5424875 55.1926759,70.4763956 C55.5362247,70.4103038 55.7820942,70.2847312 55.9302917,70.099674 C56.2940493,69.9146169 57.0821789,68.7051544 58.2947041,66.4712503 C59.5072294,64.2373462 60.7130003,61.7721576 61.9120531,59.0756107 C63.1111058,56.3790637 64.2090983,53.827957 65.2060635,51.4222141 C66.2030287,49.0164713 66.8968522,47.2055821 67.2875548,45.9894923 C67.6782574,44.7734025 67.5300621,43.9274396 66.8429644,43.4515784 C66.3579543,43.0682457 64.687389,42.7179643 61.8312184,42.4007234 C58.9750478,42.0834826 56.6207633,41.9546055 54.7682942,42.0140881 C52.915825,42.0735708 51.4102954,42.1760116 50.2516602,42.3214136 Z M45.972931,50.4566305 C45.2141637,51.0518703 44.8992085,51.5833264 45.0280557,52.0510147 C45.1282703,52.2919451 45.3716448,52.5966466 45.7581866,52.9651284 C46.1447284,53.3336101 46.678005,53.9040397 47.3580322,54.6764341 C48.0380595,55.4488285 49.050927,56.4302508 50.3966652,57.6207303 C51.7424033,58.8112098 52.5584238,59.5623344 52.8447511,59.8741266 C53.3315074,60.0867123 53.675095,60.0300236 53.8755241,59.704059 C54.1904841,59.3072325 53.9077401,58.0955126 53.0272838,56.068863 C52.1468274,54.0422133 51.2556472,52.1927462 50.3537163,50.5204059 C49.9671745,49.8684766 49.4804254,49.5283448 48.8934545,49.5 C47.7051964,49.5425171 46.7316982,49.8613908 45.972931,50.4566305 Z" id="MASTER-SWORD-3" sketch:type="MSShapeGroup"></path>
        </g>
    </g>
</svg>